<svg width="24" height="18" viewBox="0 0 24 18" fill="none" xmlns="http://www.w3.org/2000/svg">
	<path d="M9.87605 1.98866C9.70165 1.50386 9.52565 1.01506 9.52245 1.00866C9.43845 0.820665 9.24405 0.702264 9.03925 0.723064C8.90965 0.733464 5.84325 0.997463 3.87845 2.57746C2.85125 3.52626 0.800049 9.07347 0.800049 13.8695C0.800049 13.9543 0.821649 14.0367 0.864049 14.1103C2.28085 16.5983 6.14325 17.2495 7.02325 17.2775C7.02885 17.2783 7.03365 17.2783 7.03845 17.2783C7.19365 17.2783 7.33925 17.2039 7.43205 17.0783L8.38405 15.7887C6.81125 15.5495 6.52725 15.2375 6.46085 15.1887C6.10565 14.9271 5.84325 14.5607 6.16165 14.0983C6.40645 13.7391 6.92005 13.6207 7.31365 13.8231C7.71685 14.0111 8.79605 14.6159 12 14.5999C15.1816 14.5903 16.5784 13.9239 16.5984 13.9095C17.1328 13.6687 17.5496 13.7679 17.8097 14.1247C18.1192 14.6103 17.8984 14.9391 17.5448 15.1999C17.4784 15.2487 17.3176 15.3855 15.628 15.7855L16.568 17.0775C16.66 17.2039 16.8064 17.2775 16.9616 17.2775C16.9672 17.2775 16.972 17.2775 16.9769 17.2767C17.8576 17.2487 21.72 16.5975 23.136 14.1095C23.1784 14.0359 23.2 13.9535 23.2 13.8687C23.2 9.07347 21.1488 3.52627 20.096 2.55667C18.1568 0.998266 15.0904 0.734266 14.9608 0.723065C14.756 0.705466 14.5616 0.821466 14.4776 1.00867C14.4745 1.01507 14.3032 1.51187 14.1376 1.99106C14.1376 1.99106 12.8328 1.79986 12 1.79986C11.1672 1.79986 9.87605 1.98866 9.87605 1.98866ZM8.80005 12.1999C7.91605 12.1999 7.20005 11.1335 7.20005 9.81666C7.20005 8.49986 7.91605 7.43346 8.80005 7.43346C9.68725 7.30146 10.3808 8.49986 10.4 9.81666C10.4 11.1335 9.68405 12.1999 8.80005 12.1999ZM15.2 12.1999C14.316 12.1999 13.6 11.1263 13.6 9.80226C13.6 8.47826 14.316 7.40466 15.2 7.40466C16.084 7.40466 16.8 8.47826 16.8 9.80226C16.8 11.1263 16.084 12.1999 15.2 12.1999Z"
		fill="#1C1F22" fill-opacity="0.75" />
</svg>