<svg width="20" height="20" viewBox="0 0 20 20" fill="none" xmlns="http://www.w3.org/2000/svg">
	<path d="M9.9712 19.5271C8.0006 19.5305 6.07745 18.9226 4.46697 17.787C6.27928 17.5146 8.0612 17.0687 9.78817 16.4552C12.7173 15.4069 15.3853 13.9161 17.6314 11.7316C18.2951 11.0842 18.8999 10.3789 19.4385 9.6241C19.4683 9.58299 19.4916 9.53126 19.5207 9.48549C19.5287 9.64333 19.5327 9.80226 19.5327 9.96231C19.5327 12.4985 18.5254 14.9308 16.7324 16.7245C14.9393 18.5181 12.5074 19.5263 9.9712 19.5271ZM2.74275 15.4214C2.99541 15.4069 3.24808 15.3764 3.49941 15.3445C4.10023 15.2682 4.27132 15.07 4.27199 14.4592C4.27199 12.8473 4.27199 11.2349 4.27199 9.62211C4.27199 8.96824 4.59827 8.64725 5.25414 8.65057C5.64075 8.65057 6.02737 8.65057 6.41334 8.67114C6.99229 8.69833 7.29865 9.01797 7.30595 9.59956C7.31392 10.2289 7.30595 10.8596 7.30595 11.4882C7.30595 12.471 7.30595 13.4538 7.30595 14.4366C7.30595 14.5208 7.2277 14.6728 7.44191 14.6509C8.13954 14.5786 8.3942 14.3047 8.3942 13.605C8.3942 11.5948 8.3942 9.58475 8.3942 7.57494C8.3942 6.91708 8.7165 6.59677 9.36905 6.59146C9.72185 6.58814 10.0753 6.59146 10.4301 6.59146C11.1098 6.59544 11.4248 6.90779 11.4248 7.58288C11.4248 9.04184 11.4248 10.5008 11.4248 11.9597V13.3816C12.4859 13.0314 12.5449 12.9505 12.5396 11.9936C12.5283 9.80514 12.5343 7.61671 12.5396 5.43292C12.5396 4.85598 12.8652 4.53632 13.4442 4.5297C13.797 4.52572 14.1504 4.5297 14.5052 4.5297C15.2765 4.5297 15.5577 4.8122 15.5584 5.59076C15.5584 7.3353 15.5584 9.08009 15.5584 10.8251C15.5584 10.9385 15.51 11.0651 15.6041 11.1686C16.504 10.6414 18.386 8.87538 18.9504 8.03383C19.0727 7.8578 19.1556 7.65735 19.1931 7.44628C18.828 6.10873 18.1765 4.86655 17.2836 3.80578C16.3908 2.74501 15.278 1.891 14.0225 1.30294C12.7669 0.714863 11.3984 0.406776 10.012 0.400016C8.6255 0.393256 7.25413 0.687984 5.99286 1.26379C4.73159 1.83958 3.61057 2.68269 2.70745 3.73471C1.80434 4.78673 1.14072 6.02249 0.762562 7.35642C0.384405 8.69034 0.300752 10.0905 0.517398 11.46C0.734044 12.8294 1.24581 14.1354 2.01724 15.2874C2.24291 15.3971 2.49281 15.4434 2.74275 15.4214Z"
		fill="#1C1F22" fill-opacity="0.75" />
</svg>