<svg width="18" height="18" viewBox="0 0 18 18" fill="none" xmlns="http://www.w3.org/2000/svg">
	<path d="M16.2 0.199951H1.79995C0.915952 0.199951 0.199951 0.915951 0.199951 1.79995V16.2C0.199951 17.084 0.915951 17.7999 1.79995 17.7999H16.2C17.084 17.7999 17.7999 17.084 17.7999 16.2V1.79995C17.7999 0.915952 17.084 0.199951 16.2 0.199951ZM15.0336 13.8H10.2888V13.5336L11.4 12.556V6.97595L8.67115 13.8H8.24475L5.19995 6.92235V11.792L6.59195 13.5336V13.8H2.96635V13.5336L4.40555 11.792V5.99835L3.12635 4.39915C3.12635 4.39915 3.12635 4.16795 3.12635 4.20395H6.62715L9.34635 10.0864L11.6919 4.20395H15.0152V4.39915L13.8 5.42075V12.556L15.0336 13.5336V13.8Z"
		fill="#1C1F22" fill-opacity="0.75" />
</svg>