<svg width="22" height="18" viewBox="0 0 22 18" fill="none" xmlns="http://www.w3.org/2000/svg">
	<path d="M21.4002 2.54963C20.6346 2.88963 19.8122 3.11843 18.949 3.22163C19.8306 2.69363 20.5066 1.85763 20.825 0.860828C20.001 1.34963 19.0874 1.70483 18.1146 1.89683C17.3362 1.06723 16.2274 0.548828 15.0002 0.548828C12.6434 0.548828 10.733 2.46003 10.733 4.81603C10.733 5.15043 10.7714 5.47683 10.8434 5.78803C7.29696 5.61043 4.15296 3.91123 2.04736 1.32883C1.68096 1.95923 1.47056 2.69203 1.47056 3.47523C1.47056 4.95523 2.22336 6.26163 3.36816 7.02643C2.66896 7.00403 2.01056 6.81203 1.43536 6.49283C1.43536 6.51123 1.43536 6.52803 1.43536 6.54643C1.43536 8.61443 2.90577 10.3392 4.85856 10.7304C4.50096 10.828 4.12336 10.88 3.73376 10.88C3.45936 10.88 3.19136 10.8528 2.93136 10.804C3.47456 12.4992 5.05056 13.7336 6.91776 13.768C5.45776 14.9128 3.61776 15.5952 1.61776 15.5952C1.27377 15.5952 0.933765 15.5752 0.599365 15.5352C2.48817 16.7456 4.73056 17.452 7.14097 17.452C14.9906 17.452 19.2818 10.9496 19.2818 5.31043C19.2818 5.12563 19.2778 4.94163 19.2698 4.75843C20.1042 4.15603 20.8282 3.40483 21.4002 2.54963Z"
		fill="#1C1F22" fill-opacity="0.75" />
</svg>