<svg width="30" height="30" viewBox="0 0 30 30" fill="none" xmlns="http://www.w3.org/2000/svg">
<g id="discord">
<path id="Vector" d="M12.345 6.23583C12.127 5.62983 11.907 5.01883 11.903 5.01083C11.798 4.77583 11.555 4.62783 11.299 4.65383C11.137 4.66683 7.304 4.99683 4.848 6.97183C3.564 8.15783 1 15.0918 1 21.0868C1 21.1928 1.027 21.2958 1.08 21.3878C2.851 24.4978 7.679 25.3118 8.779 25.3468C8.786 25.3478 8.792 25.3478 8.798 25.3478C8.992 25.3478 9.174 25.2548 9.29 25.0978L10.48 23.4858C8.514 23.1868 8.159 22.7968 8.076 22.7358C7.632 22.4088 7.304 21.9508 7.702 21.3728C8.008 20.9238 8.65 20.7758 9.142 21.0288C9.646 21.2638 10.995 22.0198 15 21.9998C18.977 21.9878 20.723 21.1548 20.748 21.1368C21.416 20.8358 21.937 20.9598 22.262 21.4058C22.649 22.0128 22.373 22.4238 21.931 22.7498C21.848 22.8108 21.647 22.9818 19.535 23.4818L20.71 25.0968C20.825 25.2548 21.008 25.3468 21.202 25.3468C21.209 25.3468 21.215 25.3468 21.221 25.3458C22.322 25.3108 27.15 24.4968 28.92 21.3868C28.973 21.2948 29 21.1918 29 21.0858C29 15.0918 26.436 8.15783 25.12 6.94583C22.696 4.99783 18.863 4.66783 18.701 4.65383C18.445 4.63183 18.202 4.77683 18.097 5.01083C18.093 5.01883 17.879 5.63983 17.672 6.23883C17.672 6.23883 16.041 5.99983 15 5.99983C13.959 5.99983 12.345 6.23583 12.345 6.23583ZM11 18.9998C9.895 18.9998 9 17.6668 9 16.0208C9 14.3748 9.895 13.0418 11 13.0418C12.109 12.8768 12.976 14.3748 13 16.0208C13 17.6668 12.105 18.9998 11 18.9998ZM19 18.9998C17.895 18.9998 17 17.6578 17 16.0028C17 14.3478 17.895 13.0058 19 13.0058C20.105 13.0058 21 14.3478 21 16.0028C21 17.6578 20.105 18.9998 19 18.9998Z" fill="black"/>
</g>
</svg>
