<svg width="30" height="30" viewBox="0 0 30 30" fill="none" xmlns="http://www.w3.org/2000/svg">
<g id="etherscan">
<path id="Vector" d="M14.9641 26.909C12.5009 26.9132 10.0969 26.1534 8.08383 24.7338C10.3492 24.3934 12.5766 23.8359 14.7353 23.0692C18.3968 21.7587 21.7318 19.8952 24.5394 17.1646C25.369 16.3554 26.125 15.4737 26.7982 14.5302C26.8355 14.4789 26.8646 14.4142 26.9009 14.357C26.911 14.5543 26.9159 14.7529 26.9159 14.953C26.9159 18.1232 25.6568 21.1636 23.4156 23.4057C21.1743 25.6478 18.1343 26.9079 14.9641 26.909ZM5.92856 21.7769C6.24439 21.7587 6.56022 21.7206 6.87439 21.6807C7.62541 21.5854 7.83928 21.3376 7.8401 20.5741C7.8401 18.5592 7.8401 16.5438 7.8401 14.5278C7.8401 13.7104 8.24796 13.3092 9.06779 13.3133C9.55106 13.3133 10.0343 13.3133 10.5168 13.339C11.2405 13.373 11.6234 13.7726 11.6326 14.4996C11.6425 15.2862 11.6326 16.0746 11.6326 16.8604C11.6326 18.0889 11.6326 19.3174 11.6326 20.5459C11.6326 20.6512 11.5347 20.8411 11.8025 20.8137C12.6746 20.7234 12.9929 20.381 12.9929 19.5064C12.9929 16.9936 12.9929 14.4811 12.9929 11.9688C12.9929 11.1465 13.3958 10.7461 14.2114 10.7394C14.6524 10.7353 15.0943 10.7394 15.5378 10.7394C16.3874 10.7444 16.7812 11.1349 16.7812 11.9787C16.7812 13.8024 16.7812 15.6261 16.7812 17.4498V19.2271C18.1075 18.7894 18.1813 18.6883 18.1746 17.4921C18.1605 14.7565 18.168 12.021 18.1746 9.29127C18.1746 8.57009 18.5817 8.17053 19.3053 8.16225C19.7463 8.15727 20.1882 8.16225 20.6317 8.16225C21.5957 8.16225 21.9472 8.51537 21.9481 9.48857C21.9481 11.6692 21.9481 13.8502 21.9481 16.0315C21.9481 16.1732 21.8876 16.3315 22.0053 16.4609C23.1301 15.8019 25.4826 13.5943 26.1882 12.5424C26.341 12.3224 26.4446 12.0718 26.4915 11.808C26.0352 10.136 25.2208 8.58331 24.1046 7.25734C22.9886 5.93138 21.5976 4.86387 20.0282 4.12879C18.4587 3.3937 16.7482 3.00859 15.0151 3.00014C13.282 2.99169 11.5678 3.3601 9.99119 4.07986C8.4146 4.7996 7.01334 5.85349 5.88444 7.16851C4.75555 8.48353 3.92602 10.0282 3.45332 11.6956C2.98063 13.363 2.87606 15.1133 3.14687 16.8251C3.41768 18.5369 4.05738 20.1694 5.02168 21.6094C5.30376 21.7465 5.61613 21.8044 5.92856 21.7769Z" fill="black"/>
</g>
</svg>
