<svg width="30" height="30" viewBox="0 0 30 30" fill="none" xmlns="http://www.w3.org/2000/svg">
<g id="ig 1">
<path id="Vector" d="M10 3.75C6.55375 3.75 3.75 6.55375 3.75 10V20C3.75 23.4462 6.55375 26.25 10 26.25H20C23.4462 26.25 26.25 23.4462 26.25 20V10C26.25 6.55375 23.4462 3.75 20 3.75H10ZM10 6.25H20C22.0675 6.25 23.75 7.9325 23.75 10V20C23.75 22.0675 22.0675 23.75 20 23.75H10C7.9325 23.75 6.25 22.0675 6.25 20V10C6.25 7.9325 7.9325 6.25 10 6.25ZM21.25 7.5C20.9185 7.5 20.6005 7.6317 20.3661 7.86612C20.1317 8.10054 20 8.41848 20 8.75C20 9.08152 20.1317 9.39946 20.3661 9.63388C20.6005 9.8683 20.9185 10 21.25 10C21.5815 10 21.8995 9.8683 22.1339 9.63388C22.3683 9.39946 22.5 9.08152 22.5 8.75C22.5 8.41848 22.3683 8.10054 22.1339 7.86612C21.8995 7.6317 21.5815 7.5 21.25 7.5ZM15 8.75C11.5538 8.75 8.75 11.5538 8.75 15C8.75 18.4462 11.5538 21.25 15 21.25C18.4462 21.25 21.25 18.4462 21.25 15C21.25 11.5538 18.4462 8.75 15 8.75ZM15 11.25C17.0675 11.25 18.75 12.9325 18.75 15C18.75 17.0675 17.0675 18.75 15 18.75C12.9325 18.75 11.25 17.0675 11.25 15C11.25 12.9325 12.9325 11.25 15 11.25Z" fill="black"/>
</g>
</svg>
