<svg width="30" height="30" viewBox="0 0 30 30" fill="none" xmlns="http://www.w3.org/2000/svg">
<g id="medium">
<path id="Vector" d="M24 4H6C4.895 4 4 4.895 4 6V24C4 25.105 4.895 26 6 26H24C25.105 26 26 25.105 26 24V6C26 4.895 25.105 4 24 4ZM22.542 21H16.611V20.667L18 19.445V12.47L14.589 21H14.056L10.25 12.403V18.49L11.99 20.667V21H7.458V20.667L9.257 18.49V11.248L7.658 9.249C7.658 9.249 7.658 8.96 7.658 9.005H12.034L15.433 16.358L18.365 9.005H22.519V9.249L21 10.526V19.445L22.542 20.667V21Z" fill="black"/>
</g>
</svg>
