<svg width="30" height="30" viewBox="0 0 30 30" fill="none" xmlns="http://www.w3.org/2000/svg">
<g id="opensea">
<path id="Exclude" fill-rule="evenodd" clip-rule="evenodd" d="M27 15C27 21.6271 21.6271 27 15 27C8.37295 27 3 21.6271 3 15C3 8.37295 8.37295 3 15 3C21.6284 3 27 8.37295 27 15ZM8.92027 15.4033L8.97204 15.322L12.0937 10.4385C12.1393 10.367 12.2466 10.3744 12.2811 10.4521C12.8026 11.6208 13.2526 13.0744 13.0418 13.9794C12.9518 14.3517 12.7052 14.8559 12.4278 15.322C12.3921 15.3898 12.3526 15.4564 12.3107 15.5205C12.291 15.5501 12.2577 15.5673 12.2219 15.5673H9.0115C8.92519 15.5673 8.87465 15.4736 8.92027 15.4033ZM22.8347 17.0837V16.3106C22.8347 16.2391 22.7656 16.1874 22.6978 16.2071L19.0472 17.2624C19.0275 17.2674 19.0102 17.2784 18.9967 17.2932C18.6057 17.7252 18.2734 18.015 18.1854 18.0918L18.1793 18.0971C17.9524 18.2894 17.6713 18.3942 17.3754 18.3942H16.0538V17.0467H17.1042C17.1313 17.0467 17.1572 17.0368 17.1769 17.0196L17.3125 16.895C17.3705 16.842 17.4396 16.7779 17.5221 16.6953C17.5292 16.6883 17.5363 16.6812 17.5435 16.674C17.5869 16.6308 17.6333 16.5845 17.6787 16.5338C17.733 16.4808 17.786 16.4216 17.8353 16.3637C17.9179 16.2749 17.9968 16.1824 18.0794 16.085C18.1386 16.0209 18.1928 15.9482 18.2459 15.8754C18.305 15.8064 18.363 15.7287 18.4172 15.6547C18.4374 15.6251 18.4589 15.5951 18.4809 15.5644C18.5018 15.5352 18.5231 15.5054 18.5442 15.4747C18.5837 15.4156 18.6231 15.3527 18.6564 15.2935C18.76 15.1332 18.8475 14.9618 18.9215 14.7905C18.9554 14.7171 18.9826 14.6398 19.009 14.5647C19.0123 14.5553 19.0156 14.5459 19.0189 14.5365C19.0485 14.449 19.0731 14.3664 19.0916 14.2788C19.136 14.0729 19.1459 13.8683 19.1261 13.6636C19.1212 13.5995 19.1163 13.5366 19.1015 13.4775V13.4676C19.0965 13.4257 19.0867 13.3788 19.0731 13.3357C19.0287 13.1359 18.9597 12.9362 18.8722 12.7402C18.8426 12.6674 18.8081 12.5935 18.7748 12.5257C18.6959 12.379 18.6132 12.2322 18.5196 12.0905C18.5007 12.0605 18.48 12.0302 18.4592 11.9999C18.4433 11.9766 18.4273 11.9533 18.4123 11.9302C18.353 11.8387 18.2863 11.7504 18.2215 11.6648C18.2069 11.6455 18.1924 11.6263 18.178 11.6072C18.1398 11.557 18.098 11.5068 18.0559 11.4563C18.0328 11.4286 18.0096 11.4008 17.9869 11.3729C17.9228 11.2952 17.86 11.2213 17.7959 11.1485C17.5665 10.8896 17.3261 10.6554 17.1116 10.4556C17.0721 10.4162 17.029 10.3767 16.9846 10.3385C16.8182 10.1869 16.6665 10.0549 16.5395 9.95263C16.5014 9.92328 16.4672 9.89436 16.4353 9.86745C16.4136 9.84913 16.3931 9.83175 16.3731 9.81578C16.3346 9.78707 16.3012 9.76161 16.2731 9.74024C16.2554 9.72672 16.2398 9.71484 16.2264 9.70481C16.2165 9.69742 16.2054 9.6925 16.1943 9.68878L16.0538 9.64934V8.48549C16.0538 8.29562 15.9773 8.12549 15.8553 8.00095C15.7332 7.87644 15.5631 7.8 15.3757 7.8C15.0009 7.8 14.6976 8.10698 14.6976 8.48549V9.26959L14.6273 9.24989L14.4362 9.19562L14.2624 9.14755C14.2619 9.14755 14.2614 9.14734 14.2608 9.14709C14.2599 9.14673 14.2589 9.1463 14.2575 9.1463H14.2538L12.9346 8.78878C12.8766 8.77274 12.8273 8.83562 12.8569 8.88864L13.0677 9.27823C13.0797 9.30817 13.0948 9.33811 13.1104 9.36887C13.1205 9.38879 13.1308 9.40905 13.1405 9.42989C13.175 9.49891 13.2095 9.57166 13.2428 9.6444C13.2724 9.7085 13.302 9.77138 13.3365 9.84043C13.351 9.8729 13.3658 9.90577 13.3808 9.93911C13.4359 10.0615 13.4939 10.1901 13.551 10.3287C13.6003 10.4458 13.6496 10.5629 13.6928 10.685C13.8112 10.992 13.9233 11.3199 14.0208 11.6565C14.045 11.7318 14.0644 11.8047 14.084 11.8786C14.0923 11.9099 14.1007 11.9414 14.1095 11.9733L14.1231 12.0325C14.1625 12.1891 14.1971 12.3444 14.2217 12.501C14.2414 12.6083 14.2599 12.7106 14.2698 12.8142C14.2846 12.9313 14.2994 13.0484 14.3043 13.1655C14.3142 13.2728 14.3191 13.385 14.3191 13.4922C14.3191 13.7659 14.2944 14.0298 14.2365 14.2788C14.2329 14.2922 14.2292 14.3058 14.2256 14.3194C14.2093 14.38 14.1925 14.4429 14.1724 14.5032C14.1542 14.5679 14.1306 14.6325 14.1061 14.6997C14.0974 14.7234 14.0886 14.7475 14.0799 14.772C14.0783 14.7763 14.0767 14.7807 14.075 14.7851C14.0569 14.8339 14.0385 14.8836 14.0158 14.9323C13.8937 15.2257 13.7421 15.5179 13.5855 15.7916C13.3562 16.1972 13.1257 16.5535 12.9642 16.7828C12.9543 16.7977 12.9446 16.8118 12.9353 16.8254C12.9238 16.8422 12.9128 16.8583 12.9025 16.8741C12.852 16.9456 12.9037 17.0467 12.9913 17.0467H14.6976V18.3942H12.9715C12.508 18.3942 12.0789 18.1316 11.8718 17.7112C11.7646 17.5004 11.7226 17.2686 11.7473 17.0417C11.7534 16.9739 11.7029 16.9098 11.6339 16.9098H8.14726C8.08807 16.9098 8.04 16.9579 8.04 17.0171V17.0886C8.04 19.3127 9.83633 21.1152 12.053 21.1152H18.3075C19.4799 21.1152 20.1456 20.0468 20.7999 18.9968C20.9823 18.704 21.1638 18.4127 21.3552 18.1464C21.6992 17.668 22.5264 17.2883 22.7681 17.1847C22.8075 17.1675 22.8347 17.128 22.8347 17.0837Z" fill="black"/>
</g>
</svg>
