<svg width="30" height="30" viewBox="0 0 30 30" fill="none" xmlns="http://www.w3.org/2000/svg">
<g id="twitter">
<path id="Vector" d="M28.0003 6.93704C27.0433 7.36204 26.0153 7.64804 24.9363 7.77704C26.0383 7.11704 26.8833 6.07204 27.2813 4.82604C26.2513 5.43704 25.1093 5.88104 23.8933 6.12104C22.9203 5.08404 21.5343 4.43604 20.0003 4.43604C17.0543 4.43604 14.6663 6.82503 14.6663 9.77003C14.6663 10.188 14.7143 10.596 14.8043 10.985C10.3713 10.763 6.44126 8.63904 3.80927 5.41104C3.35126 6.19904 3.08827 7.11504 3.08827 8.09403C3.08827 9.94404 4.02927 11.577 5.46027 12.533C4.58627 12.505 3.76327 12.265 3.04427 11.866C3.04427 11.889 3.04427 11.91 3.04427 11.933C3.04427 14.518 4.88227 16.674 7.32327 17.163C6.87627 17.285 6.40427 17.35 5.91727 17.35C5.57427 17.35 5.23927 17.316 4.91427 17.255C5.59327 19.374 7.56327 20.917 9.89727 20.96C8.07227 22.391 5.77227 23.244 3.27227 23.244C2.84227 23.244 2.41727 23.219 1.99927 23.169C4.36027 24.682 7.16327 25.565 10.1763 25.565C19.9883 25.565 25.3523 17.437 25.3523 10.388C25.3523 10.157 25.3473 9.92703 25.3373 9.69803C26.3803 8.94503 27.2853 8.00603 28.0003 6.93704Z" fill="black"/>
</g>
</svg>
