<?xml version="1.0" encoding="UTF-8"?>
<svg id="Layer_1" xmlns="http://www.w3.org/2000/svg" version="1.1" viewBox="0 0 97.8 35.3">
  <!-- Generator: Adobe Illustrator 29.6.0, SVG Export Plug-In . SVG Version: 2.1.1 Build 207)  -->
  <path d="M64.9,17.6c0,9.1-7.4,16.5-16.5,16.5s-16.5-7.4-16.5-16.5S39.3,1.1,48.4,1.1s16.5,7.4,16.5,16.5ZM16.9,2.7c.3-.5,1.1-.5,1.4,0l16.8,29.1c.3.5,0,1.2-.7,1.2H.8c-.6,0-1-.7-.7-1.2L16.9,2.7ZM68.6,2.1c-.9,0-1.6.7-1.6,1.6v27.8c0,.9.7,1.6,1.6,1.6h27.8c.9,0,1.6-.7,1.6-1.6V3.7c0-.9-.7-1.6-1.6-1.6h-27.8Z"/>
</svg>