<?xml version="1.0" encoding="UTF-8"?>
<svg id="Layer_1" xmlns="http://www.w3.org/2000/svg" version="1.1" viewBox="0 0 20.8 16.9" opacity="0.35">
  <!-- Generator: Adobe Illustrator 29.6.0, SVG Export Plug-In . SVG Version: 2.1.1 Build 207)  -->
  <g id="twitter">
    <path id="Vector" d="M20.8,2c-.8.3-1.6.6-2.5.7.9-.5,1.6-1.4,1.9-2.4-.8.5-1.7.8-2.7,1-.8-.8-1.9-1.3-3.1-1.3-2.4,0-4.3,1.9-4.3,4.3s0,.7.1,1c-3.5-.2-6.7-1.9-8.8-4.5-.4.6-.6,1.4-.6,2.1,0,1.5.8,2.8,1.9,3.6-.7,0-1.4-.2-1.9-.5h0c0,2.1,1.5,3.8,3.4,4.2-.4,0-.7.1-1.1.1s-.5,0-.8,0c.5,1.7,2.1,2.9,4,3-1.5,1.1-3.3,1.8-5.3,1.8s-.7,0-1,0c1.9,1.2,4.1,1.9,6.5,1.9,7.8,0,12.1-6.5,12.1-12.1s0-.4,0-.6c.8-.6,1.6-1.4,2.1-2.2Z"/>
  </g>
</svg>