<svg width="25" height="24" viewBox="0 0 25 24" fill="none" xmlns="http://www.w3.org/2000/svg">
<g id="twitter">
<path id="Vector" d="M22.9151 5.54957C22.1495 5.88957 21.3271 6.11837 20.4639 6.22157C21.3455 5.69357 22.0215 4.85757 22.3399 3.86077C21.5159 4.34957 20.6023 4.70477 19.6295 4.89677C18.8511 4.06717 17.7423 3.54877 16.5151 3.54877C14.1583 3.54877 12.2479 5.45997 12.2479 7.81597C12.2479 8.15037 12.2863 8.47677 12.3583 8.78797C8.81185 8.61037 5.66786 6.91117 3.56226 4.32877C3.19586 4.95917 2.98546 5.69197 2.98546 6.47517C2.98546 7.95517 3.73826 9.26157 4.88306 10.0264C4.18386 10.004 3.52546 9.81197 2.95026 9.49277C2.95026 9.51117 2.95026 9.52797 2.95026 9.54637C2.95026 11.6144 4.42066 13.3392 6.37346 13.7304C6.01586 13.828 5.63826 13.88 5.24866 13.88C4.97426 13.88 4.70626 13.8528 4.44626 13.804C4.98946 15.4992 6.56546 16.7336 8.43266 16.768C6.97266 17.9128 5.13266 18.5952 3.13266 18.5952C2.78866 18.5952 2.44866 18.5752 2.11426 18.5352C4.00306 19.7456 6.24546 20.452 8.65586 20.452C16.5055 20.452 20.7967 13.9496 20.7967 8.31037C20.7967 8.12557 20.7927 7.94157 20.7847 7.75837C21.6191 7.15597 22.3431 6.40477 22.9151 5.54957Z" fill="#1C1F22" fill-opacity="0.35"/>
</g>
</svg>
