<svg xmlns="http://www.w3.org/2000/svg" width="20" height="20" viewBox="0 0 20 20" fill="none">
	<path d="M8.23008 4.15722C8.08475 3.75322 7.93808 3.34589 7.93541 3.34055C7.86541 3.18389 7.70341 3.08522 7.53275 3.10255C7.42475 3.11122 4.86941 3.33122 3.23208 4.64789C2.37608 5.43855 0.666748 10.0612 0.666748 14.0579C0.666748 14.1286 0.684748 14.1972 0.720082 14.2586C1.90075 16.3319 5.11941 16.8746 5.85275 16.8979C5.85741 16.8986 5.86141 16.8986 5.86541 16.8986C5.99475 16.8986 6.11608 16.8366 6.19341 16.7319L6.98675 15.6572C5.67608 15.4579 5.43941 15.1979 5.38408 15.1572C5.08808 14.9392 4.86941 14.6339 5.13475 14.2486C5.33875 13.9492 5.76675 13.8506 6.09475 14.0192C6.43075 14.1759 7.33008 14.6799 10.0001 14.6666C12.6514 14.6586 13.8154 14.1032 13.8321 14.0912C14.2774 13.8906 14.6247 13.9732 14.8414 14.2706C15.0994 14.6752 14.9154 14.9492 14.6207 15.1666C14.5654 15.2072 14.4314 15.3212 13.0234 15.6546L13.8067 16.7312C13.8834 16.8366 14.0054 16.8979 14.1347 16.8979C14.1394 16.8979 14.1434 16.8979 14.1474 16.8972C14.8814 16.8739 18.1001 16.3312 19.2801 14.2579C19.3154 14.1966 19.3334 14.1279 19.3334 14.0572C19.3334 10.0612 17.6241 5.43855 16.7467 4.63055C15.1307 3.33189 12.5754 3.11189 12.4674 3.10255C12.2967 3.08789 12.1347 3.18455 12.0647 3.34055C12.0621 3.34589 11.9194 3.75989 11.7814 4.15922C11.7814 4.15922 10.6941 3.99989 10.0001 3.99989C9.30608 3.99989 8.23008 4.15722 8.23008 4.15722ZM7.33341 12.6666C6.59675 12.6666 6.00008 11.7779 6.00008 10.6806C6.00008 9.58322 6.59675 8.69455 7.33341 8.69455C8.07275 8.58455 8.65075 9.58322 8.66675 10.6806C8.66675 11.7779 8.07008 12.6666 7.33341 12.6666ZM12.6667 12.6666C11.9301 12.6666 11.3334 11.7719 11.3334 10.6686C11.3334 9.56522 11.9301 8.67055 12.6667 8.67055C13.4034 8.67055 14.0001 9.56522 14.0001 10.6686C14.0001 11.7719 13.4034 12.6666 12.6667 12.6666Z"
		fill="white" />
</svg>