<svg width="18" height="18" viewBox="0 0 18 18" fill="none" xmlns="http://www.w3.org/2000/svg">
	<path fill-rule="evenodd" clip-rule="evenodd"
		d="M17.8 9.0002C17.8 13.86 13.8598 17.8002 8.99995 17.8002C4.14012 17.8002 0.199951 13.86 0.199951 9.0002C0.199951 4.14036 4.14012 0.200195 8.99995 0.200195C13.8608 0.200195 17.8 4.14036 17.8 9.0002ZM4.54149 9.29614L4.57945 9.23646L6.86868 5.65524C6.90214 5.60281 6.98079 5.60823 7.0061 5.66519C7.38855 6.52229 7.71855 7.58825 7.56395 8.25188C7.49795 8.52492 7.31713 8.8947 7.11369 9.23646C7.08748 9.28619 7.05855 9.33502 7.0278 9.38203C7.01334 9.40373 6.98892 9.41638 6.9627 9.41638H4.60838C4.54509 9.41638 4.50803 9.34767 4.54149 9.29614ZM14.7454 10.5278V9.96091C14.7454 9.90846 14.6948 9.8705 14.645 9.88497L11.9679 10.6589C11.9535 10.6625 11.9408 10.6706 11.9308 10.6815C11.6441 10.9982 11.4005 11.2108 11.3359 11.2671L11.3314 11.271C11.1651 11.412 10.9589 11.4889 10.7419 11.4889H9.77272V10.5007H10.543C10.5629 10.5007 10.5819 10.4934 10.5964 10.4808L10.6958 10.3895C10.7383 10.3506 10.789 10.3036 10.8495 10.243C10.8547 10.2378 10.8599 10.2326 10.8652 10.2274C10.897 10.1957 10.931 10.1618 10.9643 10.1246C11.0041 10.0857 11.043 10.0423 11.0792 9.99979C11.1397 9.93469 11.1976 9.86688 11.2582 9.79545C11.3016 9.74844 11.3414 9.6951 11.3802 9.64175C11.4236 9.59112 11.4661 9.53416 11.5059 9.47992C11.5207 9.45816 11.5365 9.43616 11.5526 9.41369C11.5679 9.39227 11.5836 9.37042 11.599 9.34792C11.628 9.30452 11.6569 9.25841 11.6813 9.21501C11.7573 9.09747 11.8215 8.97179 11.8757 8.84613C11.9006 8.7923 11.9205 8.73563 11.9399 8.68054C11.9423 8.67363 11.9447 8.66674 11.9471 8.65989C11.9688 8.59568 11.9869 8.53512 12.0005 8.47091C12.033 8.31992 12.0402 8.16985 12.0258 8.01976C12.0222 7.97275 12.0185 7.92663 12.0077 7.88325V7.87602C12.0041 7.84527 11.9968 7.81091 11.9869 7.77927C11.9544 7.6328 11.9037 7.48633 11.8395 7.34258C11.8178 7.28923 11.7925 7.23499 11.7681 7.18527C11.7102 7.07768 11.6497 6.97007 11.581 6.86611C11.5672 6.84415 11.5519 6.8219 11.5367 6.79969C11.525 6.78258 11.5133 6.7655 11.5023 6.74858C11.4588 6.68147 11.4099 6.61677 11.3624 6.55399C11.3517 6.53979 11.341 6.5257 11.3305 6.5117C11.3025 6.4749 11.2718 6.43811 11.2409 6.40108C11.224 6.38077 11.207 6.3604 11.1904 6.33991C11.1434 6.28295 11.0973 6.22871 11.0502 6.17536C10.8821 5.98549 10.7058 5.81372 10.5485 5.66725C10.5195 5.63832 10.4879 5.60938 10.4553 5.58136C10.3333 5.47015 10.2221 5.3734 10.1289 5.29837C10.101 5.27685 10.0759 5.25564 10.0525 5.2359C10.0366 5.22247 10.0215 5.20972 10.0069 5.19802C9.97866 5.17698 9.95417 5.15832 9.93361 5.14266C9.92058 5.13273 9.90912 5.124 9.8993 5.11663C9.89206 5.11121 9.88393 5.10761 9.8758 5.10488L9.77272 5.07596V4.22247C9.77272 4.08323 9.71666 3.95847 9.62716 3.86714C9.53765 3.77583 9.41288 3.71978 9.27546 3.71978C9.0006 3.71978 8.77819 3.9449 8.77819 4.22247V4.79748L8.72666 4.78303L8.58651 4.74323L8.45903 4.70798C8.45814 4.70798 8.45722 4.70707 8.45543 4.70707H8.45272L7.4853 4.44488C7.44281 4.43312 7.40664 4.47923 7.42834 4.51811L7.58294 4.80381C7.59172 4.82577 7.60284 4.84773 7.61427 4.87029C7.62166 4.88489 7.62919 4.89975 7.63629 4.91503C7.66161 4.96564 7.68692 5.01899 7.71133 5.07234C7.73303 5.11935 7.75474 5.16546 7.78004 5.21609C7.79069 5.2399 7.80154 5.26399 7.81254 5.28843C7.85295 5.37816 7.89544 5.47251 7.93735 5.57413C7.97352 5.66002 8.00969 5.7459 8.04133 5.83542C8.12814 6.06054 8.2104 6.30103 8.28184 6.54787C8.29961 6.60311 8.31382 6.65656 8.32822 6.71074C8.33432 6.73371 8.34046 6.7568 8.34692 6.78022L8.35687 6.82361C8.3858 6.93845 8.41113 7.05235 8.4292 7.16718C8.44367 7.24583 8.45722 7.32088 8.46446 7.39682C8.47532 7.48271 8.48616 7.56861 8.48978 7.6545C8.49702 7.73316 8.50062 7.81544 8.50062 7.89409C8.50062 8.0948 8.48255 8.28828 8.44004 8.47091C8.43738 8.48073 8.43472 8.49067 8.43204 8.50069C8.42014 8.54513 8.4078 8.5912 8.39303 8.63547C8.37968 8.68289 8.36238 8.7303 8.3444 8.77953C8.33805 8.79695 8.3316 8.8146 8.32522 8.83256C8.32403 8.83576 8.32284 8.83896 8.32165 8.84217C8.30835 8.87797 8.29482 8.91443 8.27821 8.95011C8.1887 9.16529 8.0775 9.37957 7.96268 9.58028C7.79451 9.87773 7.62545 10.139 7.507 10.3072C7.49976 10.3181 7.49269 10.3284 7.48588 10.3383C7.4774 10.3507 7.46932 10.3626 7.4618 10.3741C7.42474 10.4265 7.4627 10.5007 7.52689 10.5007H8.77819V11.4889H7.51242C7.17247 11.4889 6.85784 11.2963 6.70595 10.988C6.6273 10.8334 6.59655 10.6634 6.61464 10.497C6.61915 10.4473 6.58208 10.4003 6.53147 10.4003H3.97461C3.93121 10.4003 3.89595 10.4356 3.89595 10.479V10.5314C3.89595 12.1624 5.21326 13.4843 6.83885 13.4843H11.4254C12.2852 13.4843 12.7734 12.7008 13.2532 11.9307C13.387 11.7161 13.5201 11.5025 13.6604 11.3071C13.9127 10.9563 14.5193 10.6779 14.6965 10.6019C14.7255 10.5893 14.7454 10.5603 14.7454 10.5278Z"
		fill="white" />
</svg>