<svg xmlns="http://www.w3.org/2000/svg" width="97" height="104" viewBox="0 0 97 104" fill="none">
	<g clip-path="url(#clip0_171_71)">
		<path d="M93.1851 18.2897C94.1658 0.275218 53.3336 -12.2534 52.9261 43.6983C52.9246 44.0008 52.6691 44.2426 52.3666 44.2274C49.1006 44.0662 47.977 44.0601 44.6335 44.2365C44.3309 44.2517 44.0755 44.01 44.0724 43.7074C43.6619 -12.2367 2.83429 0.27826 3.815 18.2897C4.52201 31.2867 23.8076 33.1234 24.5983 49.1035C24.6363 49.8805 11.8613 54.6836 8.75043 67.34C3.71921 87.5729 26.4304 100.959 48.4818 100.959C79.6848 100.959 94.1232 80.0891 87.0545 63.8977C82.4475 53.1997 72.3531 50.0629 72.4003 49.1035C73.1909 33.1234 92.475 31.2867 93.1835 18.2897H93.1851Z"
			fill="#F4F5F6" />
		<path d="M76.317 3.04094C85.4307 3.04094 93.6306 10.0989 93.1836 18.2897C92.4751 31.2867 73.1909 33.1234 72.4003 49.1035C72.3532 50.0614 82.4476 53.1981 87.0546 63.8977C94.1217 80.0891 79.6849 100.959 48.4803 100.959C26.4274 100.959 3.71773 87.5729 8.74896 67.34C11.8598 54.6836 24.6363 49.882 24.5968 49.1035C23.8061 33.1234 4.52205 31.2867 3.81352 18.2897C3.36802 10.1005 11.5633 3.04854 20.674 3.04854C31.6016 3.04854 43.8474 13.1977 44.0694 43.7074C44.0709 44.0008 44.3112 44.238 44.6016 44.238C44.6107 44.238 44.6198 44.238 44.6305 44.238C46.3121 44.1498 47.4312 44.1073 48.5442 44.1073C49.645 44.1073 50.7397 44.1483 52.3636 44.2289C52.3727 44.2289 52.3818 44.2289 52.3909 44.2289C52.6814 44.2289 52.9216 43.9917 52.9231 43.6982C53.1451 13.1885 65.3864 3.04094 76.3155 3.04094M76.3155 0C69.1845 0 62.721 3.61567 58.1155 10.1826C55.5581 13.8302 53.5648 18.384 52.1918 23.7163C50.8872 28.784 50.1285 34.6165 49.9324 41.0846C49.4564 41.0724 49.0033 41.0648 48.5457 41.0648C48.0561 41.0648 47.5695 41.0724 47.0632 41.0876C46.8656 34.6211 46.1084 28.7901 44.8023 23.7254C43.4293 18.3916 41.4345 13.8393 38.877 10.1917C34.2715 3.6248 27.8065 0.00912281 20.6755 0.00760234C17.817 0.00760234 14.9008 0.61579 12.2399 1.7683C9.65515 2.88737 7.30451 4.52035 5.4389 6.48936C2.2003 9.91041 0.54603 14.1601 0.778662 18.4554C0.96568 21.8871 2.21246 24.9767 4.592 27.9021C6.55036 30.309 9.05001 32.3373 11.4691 34.2987C16.0867 38.0451 20.4702 41.5985 21.4008 47.6575C19.6279 48.7325 16.4364 50.6878 13.4031 53.6543C9.54416 57.4281 6.98521 61.7873 5.79925 66.6087C3.87129 74.3661 5.46474 81.8088 10.4093 88.1324C14.2196 93.0055 19.9305 97.0712 26.9277 99.8917C33.598 102.58 41.0513 104.002 48.4833 104.002C57.5225 104.002 65.6175 102.349 72.5387 99.0889C78.9034 96.092 84.0547 91.777 87.4362 86.6104C92.3352 79.1282 93.2125 70.4098 89.8462 62.6904C88.201 58.874 85.7318 55.4758 82.5084 52.5915C79.8688 50.2302 77.2536 48.6899 75.6906 47.7701C75.6587 47.7503 75.6252 47.732 75.5918 47.7123C76.5056 41.6213 80.8997 38.0573 85.5311 34.3018C87.9501 32.3404 90.4498 30.312 92.4081 27.9051C94.7877 24.9798 96.036 21.8902 96.2215 18.4585C96.4556 14.1616 94.7998 9.91041 91.5597 6.48936C89.6941 4.51883 87.3404 2.88585 84.7556 1.76526C82.0948 0.612749 79.177 0.00304094 76.3186 0.00304094L76.3155 0Z"
			fill="#F6C3D9" />
		<path d="M22.8708 84.1171C27.9903 83.1747 31.5804 79.3679 30.8894 75.6144C30.1985 71.8609 25.4882 69.582 20.3688 70.5244C15.2493 71.4668 11.6592 75.2735 12.3502 79.0271C13.0411 82.7806 17.7514 85.0594 22.8708 84.1171Z"
			fill="#F6C3D9" />
		<path d="M84.6426 79.0218C85.3336 75.2683 81.7435 71.4615 76.624 70.5191C71.5045 69.5768 66.7943 71.8557 66.1033 75.6092C65.4124 79.3627 69.0025 83.1695 74.1219 84.1118C79.2414 85.0542 83.9517 82.7753 84.6426 79.0218Z"
			fill="#F6C3D9" />
		<path d="M37.0523 42.6552C36.9839 41.9908 36.8592 41.3187 36.7452 40.6908C35.5805 34.3306 34.1148 25.8023 29.0242 21.2713C26.6751 19.1777 23.365 18.2167 20.2861 19.0058C17.3759 19.7524 14.1525 22.1821 14.6573 25.5256C15.2442 29.4119 19.5563 31.6394 22.021 34.244C24.2849 36.6342 26.1293 39.5458 27.1221 42.7054C28.6852 47.6803 28.3826 48.0209 31.3186 47.3367C32.5426 47.0509 34.5101 46.4989 35.7173 46.1462C37.9494 45.4939 37.2515 44.5664 37.0538 42.6552H37.0523Z"
			fill="#F6C3D9" />
		<path d="M59.9476 42.6552C60.016 41.9908 60.1407 41.3187 60.2547 40.6908C61.4194 34.3306 62.8851 25.8023 67.9756 21.2713C70.3248 19.1777 73.6348 18.2167 76.7138 19.0058C79.6239 19.7524 82.8473 22.1821 82.3425 25.5256C81.7556 29.4119 77.4436 31.6394 74.9789 34.244C72.7149 36.6342 70.8706 39.5458 69.8777 42.7054C68.3147 47.6803 68.6173 48.0209 65.6813 47.3367C64.4573 47.0509 62.4898 46.4989 61.2825 46.1462C59.0505 45.4939 59.7484 44.5664 59.946 42.6552H59.9476Z"
			fill="#F6C3D9" />
		<path d="M71.0759 73.6211C77.2566 73.6211 79.9342 67.1423 78.8303 64.9225C78.0898 63.4324 76.0403 63.2013 74.9927 64.5058C74.4757 65.149 74.5776 65.9397 74.3191 66.6771C73.0525 70.3034 67.9772 69.4702 67.7187 65.967C67.667 65.257 67.9362 64.5773 67.9438 63.8703C67.9742 61.4102 64.5182 60.5587 63.5299 62.9884C61.6627 67.5711 65.2313 73.6195 71.0759 73.6195V73.6211Z"
			fill="#48535B" />
		<path d="M25.8966 73.6529C30.3045 73.6529 34.0767 69.9977 33.8973 65.2767C33.7103 60.3504 29.6689 60.957 29.1383 63.2316C28.9391 64.0846 29.3177 64.8175 29.3177 65.6522C29.3177 69.3287 24.1238 70.4721 22.7067 66.8732C22.5105 66.376 22.5212 65.8529 22.3767 65.3436C22.1244 64.4556 21.3459 63.7851 20.4214 63.6939C15.5453 63.2134 18.0632 73.6529 25.8966 73.6529Z"
			fill="#48535B" />
		<path d="M62.2282 65.6766C62.2799 62.0701 60.2151 61.0544 58.6231 61.7052C56.3987 62.5536 57.3125 64.775 57.1787 66.0613C57.0054 67.7277 55.2964 69.233 53.3943 68.7632C52.4044 68.491 51.5393 67.7399 51.1941 66.7668C50.9585 66.1039 50.9448 65.3695 50.6377 64.737C49.7725 62.955 47.2029 62.955 46.3378 64.737C46.0306 65.3695 46.0154 66.1039 45.7813 66.7668C45.4361 67.7399 44.5695 68.491 43.5812 68.7632C41.6867 69.2315 39.9716 67.7353 39.7967 66.0613C39.6614 64.7598 40.5798 62.5551 38.3523 61.7052C36.7436 61.0468 34.6971 62.0853 34.7472 65.6766C34.7594 72.3788 42.5047 76.2089 47.8886 72.0291C48.2414 71.7555 48.7355 71.7555 49.0868 72.0291C54.4829 76.2195 62.216 72.3484 62.2282 65.6766Z"
			fill="#48535B" />
	</g>
	<defs>
		<clipPath id="clip0_171_71">
			<rect width="95.4854" height="104" fill="white" transform="translate(0.757324)" />
		</clipPath>
	</defs>
</svg>