<svg width="130" height="48" viewBox="0 0 130 48" fill="none" xmlns="http://www.w3.org/2000/svg">
	<path d="M112.883 25.6594C115.855 25.6594 118.806 24.8706 121.38 23.3808C123.893 21.9255 126.017 19.8257 127.5 17.3292C128.428 15.7656 129.136 14.0555 129.515 12.2739C129.859 10.6595 130.105 8.71419 129.347 7.18861C128.574 5.6365 126.995 4.59292 125.264 4.4949C123.707 4.40727 122.174 5.08876 121.198 6.30531C120.101 7.67061 120.316 9.35071 119.769 10.9167C118.753 13.8237 116.011 15.9339 112.885 15.9339C109.271 15.9339 106.021 13.0292 105.754 9.40952C105.643 7.90008 106.215 6.45868 106.234 4.95615C106.29 0.390931 100.481 -1.81846 97.5989 1.81619C97.2945 2.20018 97.0454 2.62799 96.8609 3.08233C96.1564 4.81317 95.8958 6.81153 95.8958 8.66922C95.8958 18.0372 103.517 25.6582 112.885 25.6582L112.883 25.6594Z"
		fill="#EDA9C7" />
	<path d="M16.9557 25.7264C22.7006 25.7264 28.1573 22.7248 31.2592 17.8955C33.1353 14.9758 34.074 11.4334 33.9414 7.94171C33.8318 5.06812 33.0904 1.26973 29.9608 0.241141L29.8708 0.212312C28.9022 -0.0851939 27.8517 -0.0702033 26.8911 0.253825C25.3332 0.77965 24.2101 1.99389 23.8376 3.59674C23.4156 5.4083 24.2182 6.96386 24.2182 8.73737C24.2182 12.6753 20.8914 16.0009 16.9546 16.0009C15.4878 16.0009 14.0441 15.527 12.8437 14.6887C11.6548 13.8572 10.7127 12.6799 10.1811 11.3284C9.76596 10.2733 9.78787 9.16287 9.47999 8.08009C8.94378 6.19588 7.2925 4.77177 5.32756 4.57805C5.07733 4.55383 4.8248 4.54806 4.57457 4.5619C1.75747 4.72219 -0.00682364 7.12876 0.00124828 9.82246C0.0104733 13.0501 1.51646 16.5152 3.45718 19.0509C5.2503 21.3941 7.65112 23.2541 10.3691 24.4003C12.4493 25.2767 14.6991 25.7275 16.9557 25.7275V25.7264Z"
		fill="#EDA9C7" />
	<path d="M40.4289 45.3433C38.7546 47.0545 36.3157 48.0001 33.5136 48.0001C27.7998 48.0001 23.9045 44.2513 23.9045 38.7924C23.9045 33.3335 27.7987 29.5835 33.5136 29.5835C36.0251 29.5835 38.2091 30.348 39.9919 31.9128C40.5742 32.4582 40.9017 33.187 40.9017 33.9873C40.9017 35.6974 39.7739 36.8263 38.0627 36.8263C37.2982 36.8263 36.6432 36.5714 36.1335 36.1713C35.2237 35.4794 34.4234 35.1888 33.5124 35.1888C31.5106 35.1888 30.1637 36.6452 30.1637 38.7924C30.1637 40.9395 31.5106 42.3959 33.5124 42.3959C34.6402 42.3959 35.5869 41.9588 36.3514 41.2312C37.0064 40.6489 37.6614 40.394 38.389 40.394C40.136 40.394 41.2649 41.5218 41.2649 43.233C41.2649 44.0702 40.9374 44.7978 40.4278 45.3444L40.4289 45.3433Z"
		fill="#EDA9C7" />
	<path d="M56.942 32.7961C56.942 34.6884 55.7128 35.8531 53.9416 35.8531C51.2306 35.8531 49.6761 36.7629 49.6761 39.9663V44.588C49.6761 46.5898 48.5196 47.8271 46.64 47.8271C44.7604 47.8271 43.6038 46.5898 43.6038 44.588V33.0867C43.6038 31.0849 44.7604 29.8476 46.64 29.8476C48.1944 29.8476 49.2783 30.6848 49.5678 32.14H49.6404C50.5445 30.5383 52.0262 29.738 53.9416 29.738C55.7128 29.738 56.942 30.9027 56.942 32.795V32.7961Z"
		fill="#EDA9C7" />
	<path d="M63.7591 40.1011C63.4823 40.1 63.2805 40.3698 63.3705 40.6315C63.8605 42.0649 64.9341 43.0727 67.0951 43.0727C68.3266 43.0727 69.4959 42.5423 70.5729 42.0326C71.8241 41.4399 73.6622 41.1966 74.5201 42.5596C75.5844 44.2501 73.9597 45.8229 72.554 46.6047C70.9108 47.518 68.9643 47.9493 67.0939 47.9493C61.2337 47.9493 58.1018 43.9687 58.1018 38.4729C58.1018 32.9771 61.2349 29.5327 66.9486 29.5327C71.5369 29.5327 75.2592 33.172 75.2592 37.103V37.4305C75.2592 39.1775 74.61 40.1507 72.863 40.1507L63.7591 40.1V40.1011ZM69.7726 36.4053C70.0667 36.4053 70.2639 36.0975 70.137 35.8334C69.5685 34.6526 68.3105 33.9676 66.8898 33.9676C65.3792 33.9676 64.2215 34.6757 63.6541 35.8322C63.5238 36.0975 63.7222 36.4065 64.0174 36.4065H69.7738L69.7726 36.4053Z"
		fill="#EDA9C7" />
	<path d="M85.4644 47.8743C84.1602 47.8743 82.8457 47.5411 81.6176 46.8411C76.6245 44.001 76.4562 37.5734 77.9633 32.5055C78.4384 30.9061 80.1174 29.9928 81.7156 30.4587C83.3265 30.928 84.2317 32.6715 83.7589 34.2824C82.9321 37.0995 82.848 40.567 84.6146 41.5725C85.9926 42.3566 87.2587 40.9913 87.7361 40.1599C88.21 39.3331 88.4752 37.2656 88.5041 36.1286C88.5467 34.4854 89.8913 33.1731 91.5345 33.1731H91.5391C93.1846 33.1754 94.528 34.4888 94.5649 36.1343C94.5938 37.2667 94.8578 39.3343 95.3329 40.1599C95.8103 40.9913 97.0765 42.3555 98.4544 41.5725C100.231 40.5612 100.136 37.0592 99.2962 34.2328C98.8188 32.6277 99.7333 30.9407 101.338 30.4633C102.942 29.9859 104.631 30.9003 105.108 32.5043C106.615 37.5723 106.446 43.9998 101.454 46.84C98.5213 48.5085 95.1 48.0969 92.4997 46.0293C91.9335 45.5796 91.1378 45.5784 90.5728 46.0293C89.0622 47.2309 87.2737 47.8732 85.4656 47.8732L85.4644 47.8743Z"
		fill="#EDA9C7" />
	<path d="M94.0987 8.79147C94.1126 7.78941 94.0399 6.78619 93.8647 5.7945C93.581 4.18704 93.0286 2.55422 91.8571 1.41839C90.5621 0.162637 88.5649 -0.317063 86.8409 0.215681C86.7072 0.257193 86.5757 0.306778 86.4466 0.359821C85.0259 0.90179 83.8313 2.07452 83.4184 3.54475C82.8696 5.4993 83.5879 7.58876 83.3781 9.60904C83.069 12.5783 80.5125 15.1602 77.5455 15.4969C76.8064 15.5811 76.0615 15.5234 75.3431 15.3458C73.2432 14.7681 71.4028 13.171 70.6706 11.1058C70.1713 9.69898 70.1401 8.13996 69.4886 6.79772C68.6653 5.10147 66.8272 3.94604 64.9407 3.94835C64.9349 3.94835 64.9291 3.94835 64.9234 3.94835C64.9176 3.94835 64.9118 3.94835 64.9061 3.94835C63.0195 3.94604 61.1815 5.10147 60.3581 6.79772C59.7066 8.13996 59.6743 9.70014 59.1762 11.1058C58.4439 13.171 56.6047 14.7681 54.5037 15.3458C53.7864 15.5234 53.0403 15.5811 52.3012 15.4969C49.3353 15.1602 46.7777 12.5783 46.4687 9.60904C46.2588 7.58876 46.9772 5.4993 46.4283 3.54475C46.0155 2.07452 44.8208 0.90179 43.4002 0.359821C43.271 0.306778 43.1396 0.257193 43.0058 0.215681C41.2819 -0.317063 39.2846 0.161484 37.9897 1.41839C36.8181 2.55537 36.2646 4.1882 35.9821 5.7945C35.8068 6.78619 35.7342 7.78941 35.748 8.79147C35.7514 10.5961 36.0743 12.3812 36.6647 14.0809C38.0623 18.2402 40.9717 21.9094 44.8543 23.9724C45.9924 24.5766 47.1997 25.0332 48.4428 25.3492C53.6135 26.7618 59.4229 25.5625 63.6503 22.2796C64.3987 21.6984 65.4469 21.6984 66.1953 22.2796C70.4226 25.5625 76.2321 26.7618 81.4028 25.3492C82.6458 25.0332 83.852 24.5766 84.9913 23.9724C88.8739 21.9094 91.7844 18.2402 93.182 14.0809C93.7736 12.3812 94.0953 10.5961 94.0987 8.79147Z"
		fill="#EDA9C7" />
</svg>